<svg width="29" height="28" viewBox="0 0 29 28" fill="none" xmlns="http://www.w3.org/2000/svg">
<path fill-rule="evenodd" clip-rule="evenodd" d="M19.7007 3.28418H8.61515V8.86105H19.7007V3.28418ZM13.3164 12.0615H9.88864C8.05608 12.0615 6.57049 13.6098 6.57049 15.5198V16.9368H8.31229V15.5198C8.31229 14.6125 9.01804 13.8769 9.88864 13.8769H18.486C19.3566 13.8769 20.0624 14.6125 20.0624 15.5198V16.9368H21.8041V15.5198C21.8041 13.6098 20.3186 12.0615 18.486 12.0615H15.0582V9.90688H13.3164V12.0615ZM7.28738 17.7093C5.54542 17.7093 4.1333 19.181 4.1333 20.9967C4.1333 22.8121 5.54542 24.2839 7.28738 24.2839C9.0293 24.2839 10.4414 22.8121 10.4414 20.9967C10.4414 19.181 9.0293 17.7093 7.28738 17.7093ZM20.9621 22.5863L18.9186 24.716L17.6869 23.4323L19.7305 21.3025L17.6903 19.1762L18.922 17.8925L20.9621 20.0189L22.9908 17.9045L24.2223 19.1882L22.1938 21.3025L24.2257 23.4204L22.994 24.704L20.9621 22.5863Z" fill="black"/>
</svg>
