<svg width="58" height="19" viewBox="0 0 58 19" fill="none" xmlns="http://www.w3.org/2000/svg">
<g clip-path="url(#clip0_561_13713)">
<path d="M24.5513 0.473182L14.9736 7.65969C14.5235 5.89206 13.4832 4.32087 12.0167 3.19374C10.5501 2.0666 8.74085 1.44762 6.87391 1.43435H0V17.9532H6.87391C8.75079 17.9779 10.5795 17.3731 12.0538 16.2399C13.5283 15.1067 14.559 13.5138 14.9736 11.7279L24.5513 18.9144L34.129 11.7279V17.9532H44.9325V14.6003H37.8065V1.42318H33.8769V7.64848L24.7919 14.835L22.8328 13.1585L27.255 9.80557L31.9178 6.2179L29.2141 4.06083L20.1291 11.0014L18.17 9.32495L27.255 2.61906L24.5513 0.462006V0.473182ZM3.67754 4.77613H6.62189C7.23116 4.77728 7.83302 4.90691 8.38619 5.15613C8.94808 5.40824 9.45406 5.76514 9.87554 6.20672C10.3191 6.6715 10.669 7.21373 10.9066 7.80493C11.3952 9.06147 11.3952 10.449 10.9066 11.7056C10.6844 12.295 10.3544 12.8403 9.9328 13.3149C9.52303 13.7815 9.02017 14.1618 8.4549 14.4326C7.87267 14.7068 7.23409 14.8483 6.5875 14.8462H3.67754V4.7873V4.77613ZM57.1909 14.6003V17.9532H46.3989V1.42318H50.3285V14.6003H57.2024H57.1909Z" fill="black"/>
</g>
<defs>
<clipPath id="clip0_561_13713">
<rect width="57.2024" height="18.4524" fill="white" transform="translate(0 0.461304)"/>
</clipPath>
</defs>
</svg>
