<svg width="63" height="20" viewBox="0 0 63 20" fill="none" xmlns="http://www.w3.org/2000/svg">
<g clip-path="url(#clip0_561_13723)">
<path d="M15.6229 19.375L49.9937 16.2373H12.6438L15.6229 19.375Z" fill="black"/>
<path d="M57.9616 3.29529C57.2565 3.31263 56.5711 3.54417 55.988 3.96204V3.53061H53.6792V14.1986H55.988V7.96255C55.9717 7.68933 56.0088 7.41551 56.0969 7.15797C56.185 6.90042 56.3222 6.66461 56.5002 6.46508C56.6781 6.26555 56.893 6.10653 57.1315 5.99783C57.3701 5.88913 57.6272 5.83305 57.8871 5.83305C58.147 5.83305 58.4042 5.88913 58.6427 5.99783C58.8813 6.10653 59.0961 6.26555 59.2741 6.46508C59.452 6.66461 59.5893 6.90042 59.6774 7.15797C59.7655 7.41551 59.8025 7.68933 59.7863 7.96255V14.2379H62.095V7.96255C62.095 5.37398 60.4193 3.29529 57.9616 3.29529Z" fill="black"/>
<path d="M48.354 3.25439C45.6728 3.25439 43.7737 5.7253 43.7737 8.86295C43.7737 12.1575 46.1569 14.4715 48.5774 14.4715C49.8063 14.4715 51.3331 14.0401 52.6364 12.079L50.5883 10.824C49.0243 13.2557 46.3804 12.0398 46.0825 9.56892H52.7109C53.3067 5.80374 50.9607 3.25439 48.354 3.25439ZM46.2314 7.49022C46.7155 5.01932 49.918 4.86244 50.3649 7.49022H46.2314Z" fill="black"/>
<path d="M38.8578 10.6691C38.8372 11.158 38.9104 11.6462 39.073 12.1047C39.2355 12.5631 39.4841 12.9824 39.8038 13.3374C40.1235 13.6925 40.5079 13.9761 40.934 14.1713C41.36 14.3665 41.8191 14.4693 42.2837 14.4735C43.0686 14.4446 43.8353 14.2158 44.518 13.8068L43.0284 11.6888C42.7997 11.8607 42.5273 11.9564 42.2464 11.9634C42.093 11.9588 41.9421 11.921 41.8032 11.8523C41.6642 11.7835 41.5402 11.6854 41.4389 11.5639C41.3375 11.4425 41.2611 11.3004 41.2142 11.1464C41.1674 10.9924 41.1511 10.83 41.1665 10.6691V6.0803H43.1402V3.53096H41.1665V0.863953H38.8578V3.53096H37.6289V6.0803H38.8578V10.6691Z" fill="black"/>
<path d="M32.5658 14.4704C33.2709 14.453 33.9563 14.2215 34.5394 13.8036V14.1958H36.8482V3.52783H34.5394V9.80313C34.5557 10.0763 34.5186 10.3502 34.4305 10.6077C34.3425 10.8653 34.2052 11.1011 34.0273 11.3006C33.8493 11.5001 33.6344 11.6591 33.3959 11.7678C33.1574 11.8766 32.9002 11.9326 32.6403 11.9326C32.3804 11.9326 32.1232 11.8766 31.8847 11.7678C31.6461 11.6591 31.4313 11.5001 31.2533 11.3006C31.0754 11.1011 30.9381 10.8653 30.85 10.6077C30.762 10.3502 30.7249 10.0763 30.7411 9.80313V3.52783H28.4324V9.80313C28.4324 12.3917 30.1081 14.4704 32.5658 14.4704Z" fill="black"/>
<path d="M22.0626 9.84438L25.4885 14.2371H28.691L24.1107 8.5501L28.0579 3.52986H24.8554L22.0626 7.25582V0H19.7166V14.2371H22.0626V9.84438Z" fill="black"/>
<path d="M16.106 13.7263V14.197H18.4147V3.52894H16.106V3.99959C15.4768 3.52138 14.722 3.26098 13.9462 3.25439C11.3395 3.25439 9.32861 5.76452 9.32861 8.86295C9.32861 11.9614 11.3022 14.4715 13.9462 14.4715C14.723 14.471 15.4795 14.21 16.106 13.7263ZM11.6746 8.90217C11.6746 7.21568 12.6056 5.88218 13.9089 5.88218C15.2123 5.88218 16.106 7.21568 16.106 8.90217C16.106 10.5887 15.2123 11.9222 13.9089 11.9222C12.6056 11.9222 11.6746 10.5887 11.6746 8.90217Z" fill="black"/>
<path d="M8.58465 5.45063C8.58366 4.23392 8.12432 3.06734 7.30746 2.207C6.4906 1.34665 5.38298 0.862855 4.22777 0.861816H0.280518V14.1968H2.701V10.0787H4.37672L7.31854 14.1968H10.3348L6.75997 9.21581C7.33046 8.79034 7.79449 8.22552 8.11229 7.56975C8.43008 6.91399 8.59217 6.18684 8.58465 5.45063ZM4.26501 7.56855H2.701V3.41116H4.26501C4.78845 3.41116 5.29045 3.63016 5.66057 4.01999C6.0307 4.40982 6.23864 4.93855 6.23864 5.48985C6.23864 6.04116 6.0307 6.56988 5.66057 6.95971C5.29045 7.34954 4.78845 7.56855 4.26501 7.56855Z" fill="black"/>
</g>
<defs>
<clipPath id="clip0_561_13723">
<rect width="61.8155" height="19.375" fill="white" transform="translate(0.280518)"/>
</clipPath>
</defs>
</svg>
