<svg width="150" height="150" viewBox="0 0 150 150" fill="none" xmlns="http://www.w3.org/2000/svg">
<path d="M75.3751 61.3751C94.8898 61.3751 115.75 55.3189 115.75 41.1876C115.75 27.0563 94.8898 21 75.3751 21C55.8605 21 35 27.0563 35 41.1876C35 55.3189 55.8605 61.3751 75.3751 61.3751Z" fill="black"/>
<path d="M35 64.7402V74.834C35 88.9653 55.8605 95.0216 75.3751 95.0216C94.8898 95.0216 115.75 88.9653 115.75 74.834V64.7402C106.329 70.7965 92.1981 74.834 75.3751 74.834C58.5522 74.834 44.4209 70.7965 35 64.7402Z" fill="black"/>
<path d="M35 98.3848V108.479C35 122.61 55.8605 128.666 75.3751 128.666C94.8898 128.666 115.75 122.61 115.75 108.479V98.3848C106.329 105.114 92.1981 108.479 75.3751 108.479C58.5522 108.479 44.4209 104.441 35 98.3848Z" fill="black"/>
</svg>
