<svg width="140" height="40" viewBox="0 0 140 40" fill="none" xmlns="http://www.w3.org/2000/svg">
<g clip-path="url(#clip0_2898_6406)">
<path d="M114.182 39.9596C106.584 39.9596 100.402 33.5027 100.402 25.5794C100.402 17.656 106.584 11.1992 114.182 11.1992C121.78 11.1992 127.962 17.656 127.962 25.5794C127.962 33.5027 121.761 39.9596 114.182 39.9596ZM115.024 17.7703C111.005 17.7703 107.751 21.2749 107.751 25.5603C107.751 29.865 111.024 33.3504 115.024 33.3504C119.024 33.3504 122.296 29.8459 122.296 25.5603C122.296 21.2749 119.024 17.7703 115.024 17.7703Z" fill="white"/>
<path d="M50.7946 11.5801H43.4453V39.5024H50.7946V11.5801Z" fill="white"/>
<path d="M15.9234 39.5027V11.5803C15.9234 9.21854 13.9904 7.31389 11.6364 7.31389C9.26317 7.31389 7.34927 9.21854 7.34927 11.5803H0C0 5.19971 5.22489 0.0190449 11.6364 0.0190449C18.0478 0.0190449 23.2727 5.21877 23.2727 11.5994V32.2079H27.5407V11.5803C27.5407 5.19971 32.7656 0 39.177 0C45.5885 0 50.8134 5.19971 50.8134 11.5803H43.4641C43.4641 9.21854 41.531 7.31389 39.177 7.31389C36.8037 7.31389 34.89 9.2376 34.89 11.5803V39.5027H15.9234Z" fill="white"/>
<path d="M7.34928 11.5801H0V39.5024H7.34928V11.5801Z" fill="white"/>
<path d="M79.2145 11.5801H71.8652V27.3317H79.2145V11.5801Z" fill="white"/>
<path d="M66.4874 39.9595C59.4827 39.9595 53.7793 34.2835 53.7793 27.3125H61.1286C61.1286 30.2458 63.54 32.6455 66.4874 32.6455C69.4349 32.6455 71.8463 30.2458 71.8463 27.3125H79.1956C79.1956 34.2835 73.4922 39.9595 66.4874 39.9595Z" fill="white"/>
<path d="M61.1481 11.5801H53.7988V27.3317H61.1481V11.5801Z" fill="white"/>
<path d="M139.999 0.457031H132.65V11.5803H139.999V0.457031Z" fill="white"/>
<path d="M129.647 11.5801H122.297V39.5024H129.647V11.5801Z" fill="white"/>
<path d="M139.999 11.5801H132.65V39.5024H139.999V11.5801Z" fill="white"/>
<path d="M89.5698 18.875H82.2207V39.4834H89.5698V18.875Z" fill="white"/>
<path d="M100.307 11.5801H82.2207V18.894H100.307V11.5801Z" fill="white"/>
</g>
<defs>
<clipPath id="clip0_2898_6406">
<rect width="140" height="40" fill="white"/>
</clipPath>
</defs>
</svg>
