<svg width="80" height="15" viewBox="0 0 80 15" fill="none" xmlns="http://www.w3.org/2000/svg">
<path fill-rule="evenodd" clip-rule="evenodd" d="M75.1443 3.17749C76.566 3.17749 78.0553 3.49478 79.0934 3.90273V1.11509C78.0328 0.775137 76.566 0.435181 74.6478 0.435181C71.0147 0.435181 68.555 1.795 68.555 4.62797C68.555 9.52334 75.573 8.52613 75.573 10.7925C75.573 11.6764 74.7381 12.175 73.0908 12.175C71.6014 12.175 69.8638 12.1297 68.5098 11.4951V14.2601C69.8638 14.736 71.8271 14.94 73.3164 14.94C77.085 14.94 79.8155 13.8068 79.8155 10.3166C79.8155 5.64784 72.7523 7.00766 72.7523 4.24269C72.7297 3.20016 73.858 3.17749 75.1443 3.17749ZM60.3183 11.1551H59.0546V14.94H54.6542V0.435181C54.7445 0.435181 58.152 0.503172 59.6865 0.435181C64.2223 0.503172 67.2461 1.95365 67.2461 5.48919C67.2461 9.61399 64.29 11.1551 60.3183 11.1551ZM59.709 2.95085C59.4834 2.95085 59.3254 2.95085 59.0772 2.95085V8.61679H59.709C61.9205 8.61679 62.8457 7.93688 62.8457 5.46653C62.8457 3.94806 61.8077 2.97352 59.709 2.95085ZM47.7715 0.435181H52.1719V14.94H47.7715V0.435181ZM37.0977 14.94V0.435181H41.4981V11.7897H45.8985L45.2667 14.94H37.0977ZM30.1925 0.435181H34.5929V14.94H30.1925V0.435181ZM23.2872 9.27403H18.8868V14.94H14.4864V0.435181H18.8868V6.10111H23.2872V0.435181H27.6876V14.94H23.2872V9.27403ZM6.31745 11.1551H5.05374V14.94H0.675903V0.435181C0.766168 0.435181 4.17366 0.503172 5.70816 0.435181C10.244 0.503172 13.2453 1.95365 13.2453 5.48919C13.2453 9.61399 10.2891 11.1551 6.31745 11.1551ZM5.70816 2.95085C5.4825 2.95085 5.32454 2.95085 5.07631 2.95085V8.61679H5.70816C7.91965 8.61679 8.84486 7.93688 8.84486 5.46653C8.84486 3.94806 7.80682 2.97352 5.70816 2.95085Z" fill="black"/>
</svg>
