<svg width="109" height="21" viewBox="0 0 109 21" fill="none" xmlns="http://www.w3.org/2000/svg">
<path d="M2.45749 16.4372C2.05673 16.4381 1.66292 16.3326 1.3163 16.1314C0.969669 15.9303 0.682648 15.6407 0.484554 15.2923C0.289493 14.9464 0.192211 14.5539 0.203129 14.157C0.214046 13.76 0.332752 13.3734 0.546532 13.0388L4.60947 6.65844C4.81742 6.31554 5.11266 6.03398 5.46503 5.84251C5.8174 5.65105 6.21428 5.55655 6.61512 5.56866C7.01566 5.57826 7.40646 5.69411 7.74752 5.90434C8.08858 6.11458 8.36767 6.41166 8.55621 6.76518C8.93496 7.48138 8.88761 8.34304 8.43398 9.01534L4.37362 15.3956C4.16771 15.7165 3.88414 15.9802 3.54918 16.1623C3.21423 16.3443 2.83873 16.4389 2.45749 16.4372V16.4372Z" fill="black"/>
<path d="M9.42614 16.4371C8.60666 16.4371 7.85261 15.9989 7.45664 15.2948C7.26202 14.9498 7.16496 14.5583 7.17588 14.1624C7.1868 13.7664 7.30528 13.3809 7.51862 13.0472L11.5738 6.68153C11.7787 6.3338 12.0729 6.04722 12.4259 5.85151C12.7788 5.6558 13.1777 5.55809 13.5812 5.5685C14.4075 5.58658 15.1564 6.04883 15.5352 6.77191C15.9113 7.49499 15.8563 8.36182 15.3888 9.03239L11.3345 15.3981C11.1292 15.7176 10.8468 15.9802 10.5133 16.1618C10.1798 16.3434 9.80588 16.4381 9.42614 16.4371V16.4371Z" fill="black"/>
<path d="M16.2394 16.4907C17.3947 16.4907 18.3312 15.5739 18.3312 14.4429C18.3312 13.3119 17.3947 12.395 16.2394 12.395C15.0842 12.395 14.1477 13.3119 14.1477 14.4429C14.1477 15.5739 15.0842 16.4907 16.2394 16.4907Z" fill="black"/>
<path d="M107.109 12.5133C107.741 12.5133 108.119 12.9626 108.119 13.6986V16.2208H108.977V13.6409C108.977 12.3893 108.388 11.6637 107.279 11.6637C106.845 11.6637 106.157 11.7825 105.746 12.5804C105.651 12.3451 105.493 12.1399 105.291 11.9869C105.088 11.8338 104.848 11.7384 104.595 11.711C104.436 11.6819 104.274 11.6724 104.113 11.6826C103.76 11.711 103.132 11.9305 102.897 12.4281V11.7592H102.038V16.2208H102.897V13.8131C102.897 12.8765 103.51 12.5133 104.123 12.5133C104.698 12.5133 105.076 12.9532 105.076 13.6892V16.2208H105.93V13.8131C105.93 13.0676 106.378 12.5047 107.109 12.5133ZM98.8846 15.4753C99.2771 15.4839 99.6559 15.3273 99.9305 15.0432C100.206 14.7591 100.352 14.3726 100.338 13.9758C100.338 13.0771 99.6765 12.5133 98.8846 12.5133C98.0918 12.5133 97.4316 13.0771 97.4316 13.9758C97.4161 14.3718 97.5624 14.7574 97.8362 15.0406C98.1099 15.3247 98.4869 15.4822 98.8777 15.4753H98.8846ZM98.8846 16.312C97.6296 16.312 96.582 15.3849 96.582 13.9706C96.582 12.5563 97.6296 11.6585 98.8846 11.6585C100.14 11.6585 101.196 12.5563 101.196 13.9706C101.196 15.3849 100.134 16.3163 98.8786 16.3163L98.8846 16.312ZM92.1618 13.9706L92.1532 13.9758C92.1532 12.5615 93.2283 11.6637 94.492 11.6585C94.8094 11.6524 95.1246 11.7129 95.4172 11.8363C95.7097 11.9597 95.9731 12.1431 96.1903 12.3747L95.5396 12.9291C95.4013 12.7933 95.2376 12.6863 95.0578 12.6142C94.878 12.5421 94.6857 12.5064 94.492 12.509C93.7001 12.509 93.0114 13.0728 93.0114 13.9706C93.0114 14.5775 93.3721 15.1241 93.9256 15.3565C94.4791 15.589 95.1161 15.4598 95.5396 15.0312L96.1998 15.5855C95.9819 15.8195 95.7173 16.0051 95.4231 16.1302C95.1289 16.2554 94.8117 16.3173 94.492 16.312C93.2378 16.312 92.1618 15.3849 92.1618 13.9706ZM89.4133 15.3643C89.4124 15.2863 89.4269 15.2089 89.4559 15.1365C89.4849 15.064 89.5279 14.9981 89.5824 14.9423C89.6369 14.8865 89.7019 14.842 89.7736 14.8113C89.8453 14.7806 89.9224 14.7643 90.0004 14.7634C90.0784 14.7643 90.1554 14.7806 90.2271 14.8113C90.2989 14.842 90.3638 14.8865 90.4183 14.9423C90.4729 14.9981 90.5159 15.064 90.5449 15.1365C90.5739 15.2089 90.5883 15.2863 90.5874 15.3643C90.5798 15.5153 90.5148 15.6578 90.4057 15.7626C90.2966 15.8673 90.1516 15.9266 90.0004 15.9281C89.8491 15.9266 89.7042 15.8673 89.5951 15.7626C89.486 15.6578 89.421 15.5153 89.4133 15.3643Z" fill="black"/>
<path fill-rule="evenodd" clip-rule="evenodd" d="M91.7619 6.08734H88.7052L86.5627 11.6111L84.4314 6.08734H81.3747L85.0908 14.8159L82.7795 20.5868H85.8138L91.7619 6.08734ZM73.1722 10.9423C73.1722 12.3368 74.3911 13.2544 75.5885 13.2544C76.7652 13.2544 77.9212 12.4005 77.9212 10.9414C77.9212 9.48237 76.7652 8.62758 75.5885 8.62758C74.3911 8.62758 73.1722 9.54607 73.1722 10.9414V10.9423ZM77.9212 15.8162V14.7118C77.3014 15.6501 75.8553 16.0047 75.1133 16.0047C72.6566 16.0047 70.199 14.0679 70.199 10.9414C70.199 7.81584 72.6557 5.87903 75.1133 5.87903C75.7322 5.87903 77.1784 6.08562 77.9212 7.17024V6.09078H80.7704V15.8179L77.9212 15.8171V15.8162ZM69.3882 15.8162H66.539V14.6076C66.0629 15.5029 64.9086 16.0245 63.7104 16.0245C61.2322 16.0245 59.0432 14.0455 59.0432 10.981C59.0432 7.85888 61.2322 5.8773 63.7104 5.8773C64.9069 5.8773 66.0647 6.37657 66.539 7.27267V0.788208H69.3882V15.8162ZM66.477 10.9199C66.477 9.46171 65.4242 8.60693 64.2475 8.60693C63.0286 8.60693 62.0163 9.52369 62.0163 10.9199C62.0163 12.3609 63.0286 13.2734 64.2467 13.2734C65.4457 13.2751 66.477 12.3161 66.477 10.9199V10.9199ZM51.9984 10.6686C51.9984 9.18969 52.7628 8.68956 53.7743 8.68956C54.7444 8.68956 55.4468 9.33517 55.4468 10.6264V15.8145H58.3167V10.0023C58.3167 7.23222 56.9532 5.8773 54.7848 5.8773C53.6494 5.8773 52.5141 6.52291 51.9976 7.50251V6.08734H49.1294V15.8145H51.9984V10.6686ZM43.3018 15.9815C40.5766 15.9815 38.3032 13.9818 38.3032 10.9191C38.3032 7.85458 40.574 5.87472 43.3018 5.87472C46.0297 5.87472 48.3203 7.85458 48.3203 10.9191C48.3203 13.9835 46.0271 15.9823 43.3018 15.9823V15.9815ZM43.3018 13.1494C44.4984 13.1494 45.4908 12.2731 45.4908 10.9199C45.4908 9.60718 44.4992 8.71108 43.3018 8.71108C43.0135 8.70657 42.7273 8.7608 42.4607 8.87046C42.194 8.98012 41.9524 9.14292 41.7507 9.34894C41.5478 9.55607 41.3886 9.80187 41.2826 10.0717C41.1765 10.3416 41.1259 10.6301 41.1335 10.9199C41.1344 12.2748 42.1251 13.1494 43.3018 13.1494ZM33.1583 8.69042C34.0044 8.69042 34.7482 9.35755 34.7482 10.6272V15.8162H37.5974V10.2915C37.5974 7.35445 36.1693 5.87558 33.8805 5.87558C33.2004 5.87558 31.9196 6.08218 30.9899 7.60408C30.4528 6.47901 29.4207 5.89538 27.8954 5.89538C27.3658 5.89269 26.8467 6.04257 26.4 6.32712C25.9533 6.61166 25.5981 7.01882 25.3767 7.49993V6.0882H22.5051V15.8153H25.3741V10.6686C25.3741 9.18969 26.1798 8.68956 27.0466 8.68956C27.873 8.68956 28.615 9.33517 28.6365 10.5644V15.8153H31.5064V10.6686C31.5064 9.25425 32.2501 8.69128 33.1583 8.69128V8.69042Z" fill="black"/>
</svg>
