<svg width="154" height="21" viewBox="0 0 154 21" fill="none" xmlns="http://www.w3.org/2000/svg">
<path d="M12.2843 2.70927C12.2843 1.04713 10.7052 0.631592 9.45862 0.631592V0.880913C10.2066 0.880913 10.7883 1.13023 10.7883 1.71198C10.7883 2.04441 10.539 2.54305 9.79105 2.54305C9.2093 2.54305 7.96269 2.21062 7.04852 1.8782C5.96813 1.46266 4.97084 1.13023 4.13977 1.13023C2.47763 1.13023 1.31413 2.37684 1.31413 3.78966C1.31413 5.03626 2.22831 5.4518 2.56074 5.61801L2.64384 5.4518C2.47763 5.28558 2.22831 5.11937 2.22831 4.62073C2.22831 4.2883 2.56074 3.70655 3.39181 3.70655C4.13977 3.70655 5.13706 4.03898 6.46677 4.45451C7.63027 4.78694 8.87687 5.03626 9.54173 5.11937V7.6957L8.29512 8.77609V8.8592L9.54173 9.93959V13.5132C8.87687 13.9287 8.12891 14.0118 7.46405 14.0118C6.21745 14.0118 5.13706 13.6794 4.22288 12.6821L7.63027 11.02V5.28558L3.47491 7.11394C3.80734 6.03355 4.72152 5.28558 5.6357 4.78694L5.55259 4.53762C3.05938 5.20248 0.815491 7.52949 0.815491 10.3551C0.815491 13.6794 3.55802 16.1726 6.63298 16.1726C9.95726 16.1726 12.118 13.5132 12.118 10.7707H11.9518C11.4532 11.8511 10.7052 12.8483 9.79105 13.347V9.93959L11.1208 8.8592V8.77609L9.79105 7.6957V5.11937C11.0377 5.11937 12.2843 4.2883 12.2843 2.70927ZM5.05395 11.8511L4.05666 12.3497C3.47491 11.6017 3.14249 10.6044 3.14249 9.19163C3.14249 8.60988 3.14249 7.94502 3.3087 7.44638L5.05395 6.6984V11.8511ZM13.8633 13.7625L12.7829 14.5936L12.9491 14.7598L13.4478 14.3443L15.2761 16.0064L17.7693 14.3443L17.6862 14.178L17.0214 14.5936L16.1903 13.7625V8.11124L16.8551 7.6126L18.268 8.77609V13.8456C18.268 17.0037 17.6031 17.5023 16.1903 18.001V18.2503C18.5173 18.3334 20.6781 17.5854 20.6781 13.5132V8.02813L21.426 7.44638L21.2598 7.28017L20.595 7.77881L18.5173 6.03355L16.1903 7.77881V0.96402H16.0241L13.1153 2.95859V3.1248C13.4478 3.29102 13.9464 3.45723 13.9464 4.37141L13.8633 13.7625ZM29.0719 12.8483L26.9942 14.4274L24.9165 12.7652V11.7679L28.8226 9.10852V9.02541L26.828 6.03355L22.5064 8.36056V13.8456L21.6754 14.5105L21.8416 14.6767L22.5895 14.0949L25.4152 16.1726L29.155 13.1808L29.0719 12.8483ZM24.9165 11.4355V7.36327L25.0827 7.28017L26.9111 10.1889L24.9165 11.4355ZM44.9453 1.9613C44.9453 1.71198 44.8622 1.46266 44.7791 1.21334H44.6129C44.3636 1.8782 44.0311 2.21062 43.2001 2.21062C42.4521 2.21062 41.9535 1.79509 41.621 1.46266L39.2109 4.20519L39.3771 4.37141L40.2082 3.62344C40.7069 4.03898 41.1224 4.37141 42.2859 4.45451V11.3524L37.3826 2.95859C36.967 2.29373 36.3853 1.37955 35.2218 1.37955C33.8921 1.37955 32.7286 2.54305 32.8948 4.37141H33.1441C33.2272 3.87277 33.4765 3.29102 34.0583 3.29102C34.4738 3.29102 34.8894 3.70655 35.1387 4.12209V6.86462C33.6428 6.86462 32.6455 7.52949 32.6455 8.77609C32.6455 9.44095 32.9779 10.4382 33.9752 10.6876V10.5213C33.809 10.3551 33.7259 10.1889 33.7259 9.93959C33.7259 9.52406 34.0583 9.19163 34.64 9.19163H35.0556V12.6821C33.3103 12.6821 31.8975 13.6794 31.8975 15.3415C31.8975 16.9206 33.2272 17.6685 34.7231 17.5854V17.4192C33.809 17.3361 33.3934 16.9206 33.3934 16.3388C33.3934 15.5909 33.8921 15.2584 34.5569 15.2584C35.2218 15.2584 35.8035 15.674 36.2191 16.1726L38.6292 13.5132L38.463 13.347L37.8812 14.0118C36.967 13.1808 36.4684 12.9314 35.388 12.7652V4.45451L42.0366 16.0895H42.5352V4.45451C43.7818 4.37141 44.9453 3.37412 44.9453 1.9613ZM51.0121 12.8483L48.9345 14.4274L46.8568 12.7652V11.7679L50.7628 9.10852V9.02541L48.7682 6.03355L44.4467 8.36056V13.8456L43.6156 14.5105L43.7818 14.6767L44.5298 14.0949L47.3554 16.1726L51.0952 13.1808L51.0121 12.8483ZM46.8568 11.4355V7.36327L47.023 7.28017L48.8513 10.1889L46.8568 11.4355ZM64.5586 6.94773L63.9768 7.36327L62.3978 6.03355L60.5694 7.6957L61.3174 8.44366V14.6767L59.3228 13.4301V8.27745L59.9877 7.86192L58.0762 6.03355L56.2479 7.6957L56.9958 8.44366V14.4274L56.7465 14.5936L55.0013 13.347V8.36056C55.0013 7.19705 54.4195 6.86462 53.7547 6.44908C53.1729 6.03355 52.8405 5.78423 52.8405 5.20248C52.8405 4.70384 53.3391 4.45451 53.5884 4.2883V4.12209C52.9236 4.12209 51.1783 4.78694 51.1783 6.36598C51.1783 7.19705 51.5939 7.52949 52.0094 7.94502C52.4249 8.36056 52.8405 8.69299 52.8405 9.44095V14.2612L51.9263 14.926L52.0925 15.0922L52.9236 14.4274L54.835 16.0895L56.9127 14.6767L59.2397 16.0895L63.6444 13.5132V7.94502L64.7248 7.11394L64.5586 6.94773ZM80.0165 2.37684L79.1854 3.1248L77.357 1.46266L74.6145 3.45723V1.62888H74.3652L74.4483 15.0922C74.199 15.0922 73.451 14.926 72.8693 14.7598L72.7031 3.54034C72.7031 2.70927 72.1213 1.54577 70.6254 1.54577C69.1295 1.54577 68.1322 2.70927 68.1322 3.87277H68.3815C68.4646 3.37412 68.7139 2.95859 69.2126 2.95859C69.7112 2.95859 70.1267 3.29102 70.1267 4.37141V7.6126C68.6308 7.6957 67.7166 8.52677 67.7166 9.60716C67.7166 10.272 68.0491 11.2693 69.0463 11.2693V11.1031C68.7139 10.9369 68.6308 10.6876 68.6308 10.5213C68.6308 10.0227 69.0463 9.85648 69.7112 9.85648H70.0436V15.0091C68.797 15.4247 68.2984 16.3388 68.2984 17.3361C68.2984 18.7489 69.3788 19.7462 71.0409 19.7462C72.2044 19.7462 73.2017 19.58 74.199 19.3307C75.03 19.1645 76.1104 18.9151 76.6091 18.9151C77.2739 18.9151 77.5233 19.2476 77.5233 19.6631C77.5233 20.2449 77.2739 20.4942 76.9415 20.5773V20.7435C78.2712 20.4942 79.1023 19.6631 79.1023 18.4165C79.1023 17.1699 77.8557 16.4219 76.526 16.4219C75.8611 16.4219 74.4483 16.6713 73.451 16.8375C72.2875 17.0868 71.124 17.253 70.7916 17.253C70.2098 17.253 69.545 17.0037 69.545 16.1726C69.545 15.5078 70.1267 14.926 71.5396 14.926C72.2875 14.926 73.2017 15.0091 74.1159 15.2584C75.1132 15.5078 76.0273 15.7571 76.8584 15.7571C78.105 15.7571 79.1854 15.3415 79.1854 13.5963V3.37412L80.1827 2.54305L80.0165 2.37684ZM76.6091 7.44638C76.3598 7.6957 76.0273 7.94502 75.6118 7.94502C75.1963 7.94502 74.7807 7.6957 74.6145 7.44638V3.78966L75.4456 3.20791L76.6091 4.2883V7.44638ZM76.6091 9.93959C76.4429 9.77338 76.0273 9.52406 75.6118 9.52406C75.1963 9.52406 74.7807 9.77338 74.6145 9.93959V7.77881C74.7807 7.94502 75.1963 8.19434 75.6118 8.19434C76.0273 8.19434 76.4429 7.94502 76.6091 7.77881V9.93959ZM76.6091 13.8456C76.6091 14.5105 76.1935 15.1753 75.2794 15.1753H74.6145V10.272C74.7807 10.1058 75.1963 9.85648 75.6118 9.85648C76.0273 9.85648 76.3598 10.1058 76.6091 10.272V13.8456ZM87.9947 7.94502L85.3353 6.03355L81.2631 8.36056V13.7625L80.432 14.4274L80.5151 14.5936L81.18 14.0949L83.8394 16.0895L87.9947 13.5963V7.94502ZM83.507 13.1808V7.19705L85.5846 8.69299V14.5936L83.507 13.1808ZM95.8899 6.19976H95.7237C95.4744 6.36598 95.2251 6.53219 94.9757 6.53219C94.6433 6.53219 94.2278 6.36598 94.0616 6.11665H93.8953L92.4825 7.6957L91.0697 6.11665L88.5765 7.77881L88.6596 7.94502L89.3245 7.52949L90.1555 8.44366V13.6794L89.0751 14.5105L89.2413 14.6767L89.74 14.2612L91.7346 15.9233L94.3109 14.178L94.2278 14.0118L93.4798 14.4274L92.4825 13.5963V7.77881C92.8981 8.19434 93.3967 8.60988 93.9785 8.60988C95.1419 8.69299 95.8068 7.52949 95.8899 6.19976ZM105.863 14.178L103.037 16.0895L99.2142 10.272L101.957 6.03355H102.123C102.455 6.36598 102.954 6.6984 103.536 6.6984C104.118 6.6984 104.533 6.36598 104.782 6.03355H104.949C104.865 7.6957 103.702 8.69299 102.871 8.69299C102.04 8.69299 101.624 8.27745 101.126 8.02813L100.876 8.44366L105.032 14.5936L105.863 14.0949V14.178ZM96.721 13.7625L95.6406 14.5936L95.8068 14.7598L96.3054 14.3443L98.1338 16.0064L100.627 14.3443L100.461 14.178L99.7959 14.5936L98.9649 13.7625V0.96402H98.8818L95.8899 2.95859V3.1248C96.2223 3.29102 96.721 3.37412 96.721 4.37141V13.7625ZM119.659 2.70927C119.659 1.04713 118.079 0.631592 116.833 0.631592V0.880913C117.581 0.880913 118.163 1.13023 118.163 1.71198C118.163 2.04441 117.913 2.54305 117.165 2.54305C116.584 2.54305 115.337 2.21062 114.423 1.8782C113.342 1.54577 112.345 1.21334 111.514 1.21334C109.852 1.21334 108.688 2.45995 108.688 3.87277C108.688 5.11937 109.603 5.53491 109.935 5.70112L110.018 5.53491C109.769 5.36869 109.519 5.20248 109.519 4.70384C109.519 4.37141 109.852 3.78966 110.683 3.78966C111.431 3.78966 112.428 4.12209 113.758 4.53762C114.921 4.87005 116.168 5.11937 116.833 5.20248V7.77881L115.586 8.8592V8.94231L116.833 10.0227V13.5963C116.168 14.0118 115.42 14.0949 114.755 14.0949C113.509 14.0949 112.428 13.7625 111.514 12.7652L114.921 11.1031V5.28558L110.766 7.11394C111.182 6.03355 112.096 5.28558 112.927 4.70384L112.844 4.53762C110.351 5.20248 108.107 7.44638 108.107 10.272C108.107 13.5963 110.849 16.0895 113.924 16.0895C117.248 16.0895 119.409 13.4301 119.409 10.6876H119.243C118.744 11.7679 117.996 12.7652 117.082 13.2639V9.85648L118.412 8.77609V8.69299L117.165 7.6126V5.11937C118.412 5.11937 119.659 4.2883 119.659 2.70927ZM112.428 11.8511L111.431 12.3497C110.849 11.6017 110.517 10.6044 110.517 9.19163C110.517 8.60988 110.6 7.94502 110.766 7.44638L112.511 6.6984L112.428 11.8511ZM122.567 1.8782H122.484L120.822 3.29102V3.37412L122.235 4.95316H122.401L124.063 3.54034V3.45723L122.567 1.8782ZM125.06 14.178L124.396 14.5936L123.565 13.7625V8.02813L124.396 7.44638L124.229 7.28017L123.648 7.77881L122.152 6.03355L119.742 7.6957L119.908 7.94502L120.49 7.52949L121.238 8.44366V13.8456L120.157 14.6767L120.24 14.8429L120.822 14.4274L122.65 16.0895L125.144 14.4274L125.06 14.178ZM138.939 14.0949L138.358 14.5105L137.443 13.6794V8.02813L138.274 7.36327L138.108 7.19705L137.443 7.77881L135.532 6.03355L133.039 7.77881L131.127 6.03355L128.8 7.77881L127.304 6.03355L124.894 7.6957L124.977 7.94502L125.559 7.52949L126.39 8.44366V13.8456L125.725 14.5105L127.637 16.0895L129.465 14.4274L128.717 13.6794V8.02813L129.465 7.52949L130.712 8.69299V13.6794L130.047 14.3443L131.958 15.9233L133.787 14.2612L133.039 13.5132V8.02813L133.704 7.6126L135.033 8.77609V13.7625L134.452 14.3443L136.363 16.0895L138.939 14.3443V14.0949ZM146.17 12.8483L144.092 14.4274L142.014 12.7652V11.7679L145.92 9.10852V9.02541L143.926 6.03355L139.604 8.36056V14.0118L142.513 16.0895L146.253 13.0977L146.17 12.8483ZM142.014 11.4355V7.36327L142.181 7.28017L144.009 10.1889L142.014 11.4355ZM153.732 10.6876L152.153 9.44095C153.234 8.52677 153.649 7.28017 153.649 6.44908V5.95044H153.483C153.317 6.36598 152.984 6.78151 152.32 6.78151C151.655 6.78151 151.239 6.44908 150.824 5.95044L147.084 8.02813V11.02L148.497 12.1004C147.084 13.347 146.835 14.178 146.835 14.8429C146.835 15.674 147.25 16.2557 147.915 16.505L147.998 16.3388C147.832 16.1726 147.666 16.0895 147.666 15.674C147.666 15.4247 147.998 15.0091 148.663 15.0091C149.494 15.0091 149.993 15.5909 150.242 15.8402L153.815 13.6794V10.6876H153.732ZM152.818 8.19434C152.236 9.19163 150.99 10.1889 150.242 10.6876L149.328 9.93959V7.03083C149.66 7.86192 150.574 8.52677 151.488 8.52677C152.07 8.52677 152.403 8.44366 152.818 8.19434ZM151.405 14.8429C150.99 13.9287 149.993 13.2639 148.995 13.2639C148.746 13.2639 148.081 13.2639 147.416 13.6794C147.832 13.0145 148.912 11.8511 150.325 11.02L151.322 11.8511L151.405 14.8429Z" fill="black"/>
</svg>
