<svg width="49" height="19" viewBox="0 0 49 19" fill="none" xmlns="http://www.w3.org/2000/svg">
<path d="M5.6426 5.37227H0.815491L0.815491 0.871216H15.8177V5.37227H10.9895V18.504H5.6426V5.37227V5.37227ZM16.6478 0.871216H31.2349V5.37227H21.9952V7.54345H31.2349V11.7789H21.9952V14.0029H31.2349V18.504H16.6478V0.871216V0.871216ZM32.1168 0.871216H40.8897C46.6522 0.871216 48.6759 5.21343 48.6759 9.66148C48.6759 15.0624 45.8722 18.504 39.8513 18.504H32.1168V0.871216V0.871216ZM37.4642 14.0029H39.5396C42.8617 14.0029 43.33 11.25 43.33 9.60864C43.33 8.49617 42.9666 5.42526 39.1245 5.42526H37.411L37.4642 14.0029V14.0029Z" fill="black"/>
</svg>
