<svg width="80" height="15" viewBox="0 0 80 15" fill="none" xmlns="http://www.w3.org/2000/svg">
<path fill-rule="evenodd" clip-rule="evenodd" d="M74.4684 2.74231C75.8901 2.74231 77.3794 3.0596 78.4175 3.46755V0.679912C77.3569 0.339956 75.8901 0 73.9719 0C70.3388 0 67.8791 1.35982 67.8791 4.19279C67.8791 9.08816 74.8971 8.09095 74.8971 10.3573C74.8971 11.2412 74.0622 11.7398 72.4149 11.7398C70.9255 11.7398 69.1879 11.6945 67.8339 11.0599V13.8249C69.1879 14.3008 71.1512 14.5048 72.6405 14.5048C76.4091 14.5048 79.1396 13.3716 79.1396 9.88139C79.1396 5.21266 72.0764 6.57248 72.0764 3.80751C72.0538 2.76497 73.1821 2.74231 74.4684 2.74231ZM59.6424 10.7199H58.3787V14.5048H53.9783V0C54.0686 0 57.4761 0.0679912 59.0106 0C63.5464 0.0679912 66.5702 1.51847 66.5702 5.05401C66.5702 9.17881 63.6141 10.7199 59.6424 10.7199ZM59.0331 2.51567C58.8075 2.51567 58.6495 2.51567 58.4013 2.51567V8.18161H59.0331C61.2446 8.18161 62.1698 7.50169 62.1698 5.03135C62.1698 3.51288 61.1318 2.53834 59.0331 2.51567ZM47.0956 0H51.496V14.5048H47.0956V0ZM36.4218 14.5048V0H40.8222V11.3545H45.2226L44.5908 14.5048H36.4218ZM29.5166 0H33.917V14.5048H29.5166V0ZM22.6113 8.83885H18.2109V14.5048H13.8105V0H18.2109V5.66593H22.6113V0H27.0117V14.5048H22.6113V8.83885ZM5.64154 10.7199H4.37784V14.5048H0V0C0.0902647 0 3.49776 0.0679912 5.03226 0C9.56806 0.0679912 12.5694 1.51847 12.5694 5.05401C12.5694 9.17881 9.61319 10.7199 5.64154 10.7199ZM5.03226 2.51567C4.8066 2.51567 4.64863 2.51567 4.4004 2.51567V8.18161H5.03226C7.24374 8.18161 8.16896 7.50169 8.16896 5.03135C8.16896 3.51288 7.13091 2.53834 5.03226 2.51567Z" fill="white"/>
</svg>
