<svg width="97" height="20" viewBox="0 0 97 20" fill="none" xmlns="http://www.w3.org/2000/svg">
<path d="M11.252 4.39906L5.626 7.98806L11.252 11.5771L5.626 15.1661L0 11.5577L5.626 7.96866L0 4.39906L5.626 0.810059L11.252 4.39906ZM5.5969 16.3204L11.2229 12.7314L16.8489 16.3204L11.2229 19.9094L5.5969 16.3204ZM11.252 11.5577L16.878 7.96866L11.252 4.39906L16.8489 0.810059L22.4749 4.39906L16.8489 7.98806L22.4749 11.5771L16.8489 15.1661L11.252 11.5577Z" fill="white"/>
<path d="M26.8884 4.39884H31.4377C34.338 4.39884 36.7339 6.07694 36.7339 9.90844V10.7135C36.7339 14.5741 34.4932 16.3104 31.525 16.3104H26.8884V4.39884ZM29.4298 6.56194V14.1376H31.3795C33.0285 14.1376 34.1343 13.0609 34.1343 10.665V10.0345C34.1343 7.63864 32.9703 6.56194 31.2922 6.56194H29.4298ZM38.0822 6.67834H40.1192L40.449 8.91904C40.837 7.39614 41.8264 6.58134 43.6209 6.58134H44.2514V9.15184H43.2038C41.1377 9.15184 40.6333 9.86964 40.6333 11.9066V16.3395H38.121V6.67834H38.0822ZM44.7558 11.7029V11.4313C44.7558 8.20124 46.8219 6.43584 49.6349 6.43584C52.5061 6.43584 54.514 8.20124 54.514 11.4313V11.7029C54.514 14.8748 52.5643 16.582 49.6349 16.582C46.5212 16.5529 44.7558 14.8845 44.7558 11.7029ZM51.9435 11.6738V11.4313C51.9435 9.63684 51.0414 8.56014 49.6058 8.56014C48.1993 8.56014 47.2681 9.54954 47.2681 11.4313V11.6738C47.2681 13.4101 48.1702 14.3995 49.6058 14.3995C51.0414 14.3704 51.9435 13.4101 51.9435 11.6738ZM55.8332 6.67834H57.9284L58.1709 8.50194C58.6753 7.27974 59.752 6.43584 61.3428 6.43584C63.7969 6.43584 65.4168 8.20124 65.4168 11.4701V11.7417C65.4168 14.9136 63.6223 16.5917 61.3428 16.5917C59.8199 16.5917 58.7723 15.903 58.2582 14.7972V19.6763H55.8041L55.8332 6.67834ZM62.8657 11.6738V11.4604C62.8657 9.53984 61.8763 8.58924 60.5571 8.58924C59.1506 8.58924 58.2194 9.66594 58.2194 11.4604V11.6447C58.2194 13.3519 59.1215 14.4286 60.528 14.4286C61.9733 14.3995 62.8657 13.478 62.8657 11.6738ZM69.1319 14.5547L68.9185 16.3201H66.7651V3.44824H69.2192V8.38554C69.7624 7.12454 70.8391 6.43584 72.362 6.43584C74.6706 6.46494 76.3778 8.05574 76.3778 11.2567V11.5574C76.3778 14.7584 74.7579 16.5917 72.3038 16.5917C70.6839 16.5529 69.6363 15.806 69.1319 14.5547ZM73.7976 11.5574V11.3149C73.7976 9.54954 72.8373 8.56014 71.489 8.56014C70.1116 8.56014 69.1513 9.66594 69.1513 11.344V11.5574C69.1513 13.3519 70.0825 14.3995 71.4599 14.3995C72.9343 14.3995 73.7976 13.478 73.7976 11.5574ZM77.4545 11.7029V11.4313C77.4545 8.20124 79.5206 6.43584 82.3336 6.43584C85.2048 6.43584 87.2127 8.20124 87.2127 11.4313V11.7029C87.2127 14.8748 85.2339 16.582 82.3336 16.582C79.2199 16.5529 77.4545 14.8845 77.4545 11.7029ZM84.6616 11.6738V11.4313C84.6616 9.63684 83.7595 8.56014 82.3239 8.56014C80.9174 8.56014 79.9862 9.54954 79.9862 11.4313V11.6738C79.9862 13.4101 80.8883 14.3995 82.3239 14.3995C83.7692 14.3704 84.6616 13.4101 84.6616 11.6738ZM90.501 11.3149L87.1157 6.67834H90.016L91.9657 9.57864L93.9445 6.67834H96.8157L93.3819 11.2858L97 16.3201H94.1579L91.9463 13.1191L89.7929 16.3201H86.8247L90.501 11.3149Z" fill="white"/>
</svg>
