<svg width="72" height="56" viewBox="0 0 72 56" fill="none" xmlns="http://www.w3.org/2000/svg">
<path d="M46.9945 36.9099C44.854 37.2945 43.6864 38.8329 43.6864 41.6214C43.6864 44.4099 45.1459 46.3329 47.481 46.3329C48.5513 46.3329 49.5243 45.9483 51.5675 44.9868V47.2945C49.1351 48.3522 47.6756 48.7368 45.7297 48.7368C43.5891 48.7368 42.1297 48.1599 40.8648 46.9099C39.5999 45.6599 39.0161 44.0252 39.0161 42.1983C39.0161 38.1599 42.0324 35.4675 46.508 35.4675C49.427 35.4675 51.4702 36.8137 51.4702 38.7368C51.4702 39.9868 50.4972 40.8522 49.1351 40.8522C48.454 40.8522 47.8702 40.6599 47.0918 40.2752V36.9099H46.9945ZM36.1945 42.2945C38.1405 39.8906 38.8216 38.8329 38.8216 37.6791C38.8216 36.5252 37.8486 35.5637 36.5837 35.5637C35.8053 35.5637 35.1243 35.9483 34.7351 36.3329V41.3329L31.5243 45.5637V35.9483H28.508L23.3513 44.1214V35.8522H21.5999L17.027 37.006V38.1599L19.5567 38.4483V48.6406H22.7675L27.6324 40.756V48.6406H31.2324L36.1945 42.2945ZM7.29722 38.4483C8.0756 38.3522 8.3675 38.3522 8.75668 38.3522C10.8972 38.3522 12.0648 39.6983 12.0648 42.3906C12.0648 45.4675 10.7026 47.1022 8.0756 47.1022C7.88101 47.1022 7.68641 47.1022 7.39452 47.1022V38.4483H7.29722ZM7.29722 48.4483C8.1729 48.5445 8.95128 48.5445 9.43777 48.5445C13.8161 48.5445 16.5405 45.756 16.5405 41.7175C16.5405 38.1599 14.4972 35.6599 11.6756 35.6599C10.508 35.6599 9.63236 35.9483 7.29722 37.2945V35.5637H6.03236L0.9729 37.1022V38.3522H3.11344V52.5829L1.16749 53.0637V54.2175H9.43777V53.0637L7.29722 52.5829V48.4483ZM31.5243 28.256H44.1729V25.1791H31.5243V28.256ZM71.027 18.1599V25.1791H44.1729V1.14062H57.8918V3.92909H60.7134V8.0637H67.427V18.1599H71.027ZM60.7134 9.12139V18.256H66.454V9.12139H60.7134ZM45.1459 18.1599H51.7621V15.6599H45.1459V18.1599ZM45.1459 8.0637H56.8216V4.89062H45.1459V8.0637ZM45.1459 9.12139V14.6983H52.7351V18.1599H56.8216V9.12139H45.1459ZM45.1459 24.1214H51.7621V19.1214H45.1459V24.1214ZM52.7351 24.1214H56.8216V19.1214H52.7351V24.1214ZM57.8918 24.1214H59.7405V19.1214H57.8918V24.1214ZM59.7405 18.1599V9.12139H57.8918V18.256H59.7405V18.1599ZM57.8918 4.89062V8.0637H59.7405V4.89062H57.8918ZM45.1459 3.92909H56.8216V2.10216H45.1459V3.92909ZM66.454 24.1214V19.1214H60.7134V24.1214H66.454ZM70.054 19.1214H67.5243V24.1214H70.054V19.1214Z" fill="white"/>
</svg>
