<svg width="117" height="33" viewBox="0 0 117 33" fill="none" xmlns="http://www.w3.org/2000/svg">
<g clip-path="url(#clip0_1254_7270)">
<path d="M24.7606 7.04703C22.8685 6.16327 20.8454 5.52099 18.7303 5.15527C18.4705 5.62411 18.167 6.25471 17.9578 6.75635C15.7093 6.41879 13.4816 6.41879 11.2745 6.75635C11.0653 6.25471 10.7549 5.62411 10.4928 5.15527C8.3754 5.52099 6.34993 6.16563 4.45782 7.05171C0.641408 12.809 -0.393158 18.4232 0.124126 23.9577C2.65537 25.8447 5.10845 26.9911 7.52014 27.7412C8.11559 26.9231 8.64666 26.0534 9.10416 25.1368C8.23283 24.8063 7.39829 24.3984 6.60974 23.9249C6.81894 23.7702 7.02357 23.6084 7.22126 23.442C12.0308 25.6877 17.2566 25.6877 22.0087 23.442C22.2087 23.6084 22.4133 23.7702 22.6202 23.9249C21.8294 24.4007 20.9925 24.8086 20.1212 25.1392C20.5787 26.0534 21.1075 26.9254 21.7052 27.7435C24.1192 26.9934 26.5746 25.8471 29.1058 23.9577C29.7128 17.5418 28.069 11.9791 24.7606 7.04703ZM9.7594 20.554C8.31561 20.554 7.13159 19.2085 7.13159 17.5699C7.13159 15.9314 8.29033 14.5835 9.7594 14.5835C11.2285 14.5835 12.4125 15.929 12.3872 17.5699C12.3895 19.2085 11.2285 20.554 9.7594 20.554ZM19.4706 20.554C18.0268 20.554 16.8428 19.2085 16.8428 17.5699C16.8428 15.9314 18.0015 14.5835 19.4706 14.5835C20.9396 14.5835 22.1237 15.929 22.0984 17.5699C22.0984 19.2085 20.9396 20.554 19.4706 20.554Z" fill="white"/>
<path d="M39.2789 10.918H45.5551C47.0681 10.918 48.3463 11.1594 49.3948 11.64C50.4406 12.1205 51.2248 12.7909 51.7445 13.6489C52.2638 14.5068 52.5258 15.489 52.5258 16.5955C52.5258 17.6785 52.2545 18.6607 51.712 19.5397C51.1695 20.4211 50.3441 21.1174 49.2338 21.6307C48.1235 22.1441 46.7483 22.4019 45.1047 22.4019H39.2789V10.918ZM45.0402 19.4835C46.0587 19.4835 46.8429 19.2233 47.3898 18.7052C47.9372 18.1848 48.2108 17.4769 48.2108 16.5791C48.2108 15.7469 47.9668 15.0835 47.4796 14.5865C46.9923 14.0896 46.2543 13.8388 45.2678 13.8388H43.3044V19.4835H45.0402Z" fill="white"/>
<path d="M61.9224 22.3879C61.0533 22.1582 60.2691 21.8253 59.5728 21.387V18.6631C60.0993 19.078 60.8049 19.4203 61.69 19.6898C62.5751 19.9571 63.4305 20.0907 64.258 20.0907C64.6442 20.0907 64.9363 20.0391 65.1339 19.9359C65.3318 19.8328 65.4308 19.7086 65.4308 19.5656C65.4308 19.4015 65.3779 19.2655 65.2697 19.1553C65.1615 19.0452 64.9523 18.9537 64.6422 18.8764L62.7109 18.4333C61.605 18.1708 60.8209 17.8075 60.3545 17.341C59.8877 16.8768 59.6553 16.2673 59.6553 15.5125C59.6553 14.8773 59.8576 14.3264 60.2671 13.8552C60.6738 13.3841 61.2532 13.0207 62.0049 12.7652C62.757 12.5073 63.6349 12.3784 64.6442 12.3784C65.5454 12.3784 66.3708 12.4769 67.1229 12.6738C67.8745 12.8707 68.4952 13.1215 68.9897 13.4286V16.0048C68.4836 15.6977 67.9042 15.4563 67.2423 15.2734C66.5823 15.0929 65.9044 15.0039 65.2052 15.0039C64.1959 15.0039 63.6926 15.1797 63.6926 15.5289C63.6926 15.6931 63.7707 15.8149 63.927 15.897C64.0833 15.979 64.3706 16.0634 64.7869 16.1525L66.396 16.4479C67.447 16.6331 68.2308 16.9589 68.7456 17.423C69.2609 17.8872 69.5182 18.574 69.5182 19.4835C69.5182 20.4798 69.093 21.2698 68.24 21.8558C67.3869 22.4419 66.1776 22.7349 64.6098 22.7349C63.6878 22.7325 62.7915 22.6177 61.9224 22.3879Z" fill="white"/>
<path d="M73.3164 22.043C72.3948 21.5835 71.698 20.96 71.2336 20.1723C70.7693 19.3847 70.5349 18.4986 70.5349 17.5141C70.5349 16.5295 70.7761 15.6481 71.2589 14.8722C71.7417 14.0963 72.4497 13.4868 73.3833 13.0438C74.3165 12.6007 75.4316 12.3804 76.7306 12.3804C78.3398 12.3804 79.6757 12.725 80.7379 13.4141V16.417C80.3633 16.1545 79.9261 15.9411 79.4273 15.7771C78.9284 15.613 78.3951 15.5309 77.8249 15.5309C76.8272 15.5309 76.0479 15.7161 75.4845 16.0888C74.9212 16.4615 74.6387 16.9468 74.6387 17.5492C74.6387 18.1399 74.9119 18.6229 75.4593 19.0026C76.0066 19.38 76.7996 19.5699 77.8409 19.5699C78.3767 19.5699 78.9056 19.4902 79.4273 19.3331C79.9469 19.1737 80.3953 18.9792 80.77 18.7494V21.6538C79.5907 22.3758 78.2228 22.7368 76.6661 22.7368C75.3559 22.7321 74.2384 22.5024 73.3164 22.043Z" fill="white"/>
<path d="M84.7522 22.0433C83.8234 21.5838 83.1154 20.9556 82.6278 20.1562C82.1406 19.3569 81.8945 18.4661 81.8945 17.4815C81.8945 16.497 82.1381 15.6179 82.6278 14.8467C83.1174 14.0755 83.821 13.4707 84.7454 13.0323C85.667 12.594 86.7685 12.376 88.0442 12.376C89.3204 12.376 90.4215 12.594 91.3435 13.0323C92.2655 13.4707 92.9691 14.0708 93.4519 14.8373C93.9347 15.6039 94.1759 16.4829 94.1759 17.4792C94.1759 18.4637 93.9347 19.3545 93.4519 20.1539C92.9691 20.9532 92.2631 21.5815 91.3343 22.0409C90.4055 22.5004 89.3088 22.7301 88.0422 22.7301C86.7753 22.7301 85.6786 22.5027 84.7522 22.0433ZM89.6422 19.1318C90.0332 18.7333 90.2308 18.2059 90.2308 17.5495C90.2308 16.8932 90.0353 16.3704 89.6422 15.9836C89.2515 15.5945 88.7178 15.3999 88.0422 15.3999C87.3547 15.3999 86.8165 15.5945 86.4235 15.9836C86.0328 16.3728 85.8373 16.8932 85.8373 17.5495C85.8373 18.2059 86.0328 18.7333 86.4235 19.1318C86.8145 19.5303 87.3547 19.7319 88.0422 19.7319C88.7178 19.7296 89.2515 19.5303 89.6422 19.1318Z" fill="white"/>
<path d="M103.846 12.9851V16.5295C103.437 16.2552 102.908 16.1192 102.253 16.1192C101.395 16.1192 100.733 16.3841 100.273 16.9139C99.8109 17.4437 99.5809 18.2688 99.5809 19.3846V22.4039H95.6381V12.8046H99.5007V15.8567C99.7143 14.7409 100.062 13.9181 100.54 13.3859C101.016 12.8562 101.632 12.5913 102.381 12.5913C102.949 12.5913 103.437 12.7226 103.846 12.9851Z" fill="white"/>
<path d="M116.946 10.5894V22.4039H113.002V20.2543C112.669 21.063 112.163 21.6796 111.483 22.1015C110.802 22.5211 109.961 22.7321 108.963 22.7321C108.071 22.7321 107.294 22.5117 106.63 22.0687C105.965 21.6256 105.453 21.0185 105.092 20.2473C104.733 19.476 104.551 18.604 104.551 17.6289C104.54 16.6232 104.731 15.7207 105.124 14.9214C105.515 14.122 106.069 13.4985 106.781 13.0507C107.494 12.603 108.308 12.378 109.221 12.378C111.099 12.378 112.359 13.2101 113.002 14.8721V10.5894H116.946ZM112.414 19.0658C112.817 18.6673 113.016 18.1493 113.016 17.5164C113.016 16.9045 112.821 16.4052 112.43 16.0231C112.039 15.641 111.503 15.4488 110.83 15.4488C110.166 15.4488 109.635 15.6434 109.237 16.0325C108.839 16.4216 108.641 16.9256 108.641 17.5492C108.641 18.1727 108.839 18.6814 109.237 19.0752C109.635 19.469 110.159 19.6659 110.814 19.6659C111.478 19.6636 112.012 19.4643 112.414 19.0658Z" fill="white"/>
<path d="M55.8485 13.8267C56.934 13.8267 57.8143 13.0206 57.8143 12.0264C57.8143 11.0321 56.934 10.2261 55.8485 10.2261C54.7627 10.2261 53.8828 11.0321 53.8828 12.0264C53.8828 13.0206 54.7627 13.8267 55.8485 13.8267Z" fill="white"/>
<path d="M53.881 15.0669C55.0855 15.5967 56.5801 15.6201 57.8122 15.0669V22.4557H53.881V15.0669Z" fill="white"/>
</g>
<defs>
<clipPath id="clip0_1254_7270">
<rect width="117" height="32" fill="white" transform="translate(0 0.449219)"/>
</clipPath>
</defs>
</svg>
