<svg width="109" height="20" viewBox="0 0 109 20" fill="none" xmlns="http://www.w3.org/2000/svg">
<path d="M2.25507 15.6489C1.85431 15.6498 1.4605 15.5442 1.11387 15.3431C0.767246 15.142 0.480225 14.8524 0.282131 14.504C0.08707 14.1581 -0.0102122 13.7656 0.000705489 13.3686C0.0116231 12.9716 0.130329 12.5851 0.344108 12.2504L4.40705 5.87011C4.615 5.52721 4.91024 5.24565 5.26261 5.05418C5.61498 4.86272 6.01185 4.76822 6.4127 4.78033C6.81324 4.78993 7.20403 4.90578 7.5451 5.11601C7.88616 5.32625 8.16524 5.62333 8.35379 5.97685C8.73254 6.69305 8.68519 7.55471 8.23155 8.22701L4.17119 14.6073C3.96529 14.9282 3.68172 15.1919 3.34676 15.3739C3.01181 15.556 2.63631 15.6506 2.25507 15.6489Z" fill="white"/>
<path d="M9.22368 15.6486C8.40421 15.6486 7.65015 15.2105 7.25419 14.5063C7.05956 14.1613 6.96251 13.7699 6.97342 13.3739C6.98434 12.978 7.10282 12.5925 7.31617 12.2587L11.3714 5.89308C11.5762 5.54535 11.8704 5.25877 12.2234 5.06306C12.5764 4.86735 12.9753 4.76963 13.3787 4.78005C14.2051 4.79813 14.954 5.26038 15.3327 5.98346C15.7089 6.70654 15.6538 7.57337 15.1864 8.24394L11.1321 14.6096C10.9268 14.9291 10.6444 15.1918 10.3108 15.3734C9.97732 15.5549 9.60343 15.6496 9.22368 15.6486Z" fill="white"/>
<path d="M16.037 15.7022C17.1922 15.7022 18.1287 14.7853 18.1287 13.6543C18.1287 12.5233 17.1922 11.6064 16.037 11.6064C14.8817 11.6064 13.9453 12.5233 13.9453 13.6543C13.9453 14.7853 14.8817 15.7022 16.037 15.7022Z" fill="white"/>
<path d="M106.907 11.7253C107.539 11.7253 107.917 12.1747 107.917 12.9107V15.4328H108.775V12.853C108.775 11.6014 108.185 10.8757 107.077 10.8757C106.643 10.8757 105.954 10.9945 105.544 11.7925C105.448 11.5571 105.291 11.352 105.088 11.1989C104.886 11.0458 104.645 10.9505 104.393 10.9231C104.234 10.8939 104.072 10.8844 103.911 10.8946C103.558 10.9231 102.929 11.1426 102.694 11.6401V10.9713H101.835V15.4328H102.694V13.0251C102.694 12.0886 103.307 11.7253 103.921 11.7253C104.496 11.7253 104.874 12.1652 104.874 12.9012V15.4328H105.728V13.0251C105.728 12.2797 106.175 11.7167 106.907 11.7253ZM98.6822 14.6874C99.0747 14.696 99.4535 14.5393 99.7281 14.2552C100.004 13.9712 100.15 13.5847 100.135 13.1878C100.135 12.2892 99.4741 11.7253 98.6822 11.7253C97.8894 11.7253 97.2292 12.2892 97.2292 13.1878C97.2137 13.5838 97.36 13.9694 97.6338 14.2527C97.9075 14.5367 98.2845 14.6943 98.6753 14.6874H98.6822ZM98.6822 15.5241C97.4272 15.5241 96.3796 14.597 96.3796 13.1827C96.3796 11.7684 97.4272 10.8705 98.6822 10.8705C99.9373 10.8705 100.993 11.7684 100.993 13.1827C100.993 14.597 99.9312 15.5284 98.6762 15.5284L98.6822 15.5241ZM91.9594 13.1827L91.9508 13.1878C91.9508 11.7735 93.026 10.8757 94.2896 10.8705C94.607 10.8644 94.9222 10.925 95.2148 11.0483C95.5074 11.1717 95.7707 11.3551 95.9879 11.5867L95.3372 12.1411C95.199 12.0054 95.0352 11.8984 94.8554 11.8263C94.6756 11.7542 94.4833 11.7184 94.2896 11.721C93.4977 11.721 92.809 12.2848 92.809 13.1827C92.809 13.7895 93.1697 14.3362 93.7232 14.5686C94.2767 14.801 94.9137 14.6719 95.3372 14.2432L95.9974 14.7975C95.7795 15.0315 95.5149 15.2171 95.2207 15.3423C94.9265 15.4674 94.6093 15.5294 94.2896 15.5241C93.0354 15.5241 91.9594 14.597 91.9594 13.1827ZM89.2109 14.5763C89.21 14.4983 89.2245 14.4209 89.2535 14.3485C89.2825 14.2761 89.3255 14.2101 89.38 14.1543C89.4345 14.0985 89.4995 14.054 89.5712 14.0233C89.6429 13.9926 89.72 13.9764 89.798 13.9755C89.876 13.9764 89.953 13.9926 90.0248 14.0233C90.0965 14.054 90.1614 14.0985 90.216 14.1543C90.2705 14.2101 90.3135 14.2761 90.3425 14.3485C90.3715 14.4209 90.3859 14.4983 90.385 14.5763C90.3774 14.7274 90.3124 14.8698 90.2033 14.9746C90.0942 15.0794 89.9492 15.1386 89.798 15.1401C89.6467 15.1386 89.5018 15.0794 89.3927 14.9746C89.2836 14.8698 89.2186 14.7274 89.2109 14.5763Z" fill="white"/>
<path fill-rule="evenodd" clip-rule="evenodd" d="M91.5595 5.29913H88.5029L86.3604 10.8229L84.229 5.29913H81.1724L84.8884 14.0277L82.5772 19.7986H85.6115L91.5595 5.29913ZM72.9699 10.1541C72.9699 11.5486 74.1887 12.4662 75.3861 12.4662C76.5628 12.4662 77.7189 11.6123 77.7189 10.1532C77.7189 8.69416 76.5628 7.83938 75.3861 7.83938C74.1887 7.83938 72.9699 8.75786 72.9699 10.1532V10.1541ZM77.7189 15.028V13.9236C77.0991 14.8618 75.653 15.2165 74.9109 15.2165C72.4542 15.2165 69.9967 13.2797 69.9967 10.1532C69.9967 7.02763 72.4534 5.09082 74.9109 5.09082C75.5299 5.09082 76.976 5.29741 77.7189 6.38203V5.30258H80.5681V15.0297L77.7189 15.0288V15.028ZM69.1858 15.028H66.3366V13.8194C65.8606 14.7146 64.7062 15.2363 63.508 15.2363C61.0298 15.2363 58.8408 13.2573 58.8408 10.1928C58.8408 7.07067 61.0298 5.0891 63.508 5.0891C64.7045 5.0891 65.8623 5.58836 66.3366 6.48447V0H69.1858V15.028ZM66.2746 10.1317C66.2746 8.6735 65.2219 7.81872 64.0452 7.81872C62.8263 7.81872 61.814 8.73548 61.814 10.1317C61.814 11.5727 62.8263 12.4852 64.0443 12.4852C65.2434 12.4869 66.2746 11.5279 66.2746 10.1317ZM51.7961 9.88035C51.7961 8.40148 52.5605 7.90135 53.5719 7.90135C54.542 7.90135 55.2444 8.54696 55.2444 9.83817V15.0263H58.1143V9.21409C58.1143 6.44401 56.7508 5.0891 54.5825 5.0891C53.4471 5.0891 52.3117 5.7347 51.7952 6.7143V5.29913H48.9271V15.0263H51.7961V9.88035ZM43.0995 15.1933C40.3742 15.1933 38.1009 13.1936 38.1009 10.1308C38.1009 7.06637 40.3716 5.08651 43.0995 5.08651C45.8273 5.08651 48.1179 7.06637 48.1179 10.1308C48.1179 13.1953 45.8248 15.1941 43.0995 15.1941V15.1933ZM43.0995 12.3612C44.296 12.3612 45.2885 11.4849 45.2885 10.1317C45.2885 8.81898 44.2969 7.92288 43.0995 7.92288C42.8112 7.91836 42.525 7.97259 42.2583 8.08225C41.9916 8.19191 41.7501 8.35471 41.5483 8.56073C41.3454 8.76786 41.1862 9.01366 41.0802 9.28354C40.9742 9.55342 40.9235 9.84185 40.9311 10.1317C40.932 11.4866 41.9228 12.3612 43.0995 12.3612ZM32.9559 7.90222C33.8021 7.90222 34.5458 8.56934 34.5458 9.83903V15.028H37.395V9.50332C37.395 6.56624 35.967 5.08737 33.6781 5.08737C32.9981 5.08737 31.7172 5.29397 30.7876 6.81588C30.2504 5.6908 29.2183 5.10717 27.693 5.10717C27.1634 5.10448 26.6443 5.25436 26.1976 5.53891C25.751 5.82345 25.3957 6.23062 25.1743 6.71172V5.29999H22.3027V15.0271H25.1718V9.88035C25.1718 8.40148 25.9775 7.90135 26.8443 7.90135C27.6706 7.90135 28.4126 8.54696 28.4342 9.77619V15.0271H31.304V9.88035C31.304 8.46604 32.0478 7.90308 32.9559 7.90308V7.90222Z" fill="white"/>
</svg>
