<svg width="55" height="21" viewBox="0 0 55 21" fill="none" xmlns="http://www.w3.org/2000/svg">
<path d="M5.47515 5.64536H0L0 0.540039H17.0162V5.64536H11.5399V20.54H5.47515V5.64536ZM17.9578 0.540039H34.5033V5.64536H24.0231V8.10803H34.5033V12.9121H24.0231V15.4347H34.5033V20.54H17.9578V0.540039ZM35.5035 0.540039H45.4542C51.9903 0.540039 54.2857 5.4652 54.2857 10.5104C54.2857 16.6364 51.1056 20.54 44.2764 20.54H35.5035V0.540039ZM41.5688 15.4347H43.9228C47.691 15.4347 48.2221 12.3122 48.2221 10.4505C48.2221 9.18866 47.81 5.70547 43.452 5.70547H41.5085L41.5688 15.4347Z" fill="white"/>
</svg>
