<svg width="109" height="25" viewBox="0 0 109 25" fill="none" xmlns="http://www.w3.org/2000/svg">
<path d="M9.22023 9.18537C9.22023 10.2532 8.76846 11.1978 8.0292 11.9371C7.2078 12.7585 6.01677 12.9638 6.01677 13.662C6.01677 14.6066 7.53636 14.3191 8.99435 15.7771C9.95949 16.7423 10.555 18.0154 10.555 19.494C10.555 22.4099 8.21402 24.7304 5.27751 24.7304C2.34099 24.7304 0 22.412 0 19.496C0 18.0175 0.595516 16.7443 1.56066 15.7792C3.01865 14.3212 4.53824 14.6087 4.53824 13.6641C4.53824 12.9659 3.34721 12.7605 2.52581 11.9391C1.78655 11.1999 1.33478 10.2552 1.33478 9.14635C1.33478 7.01071 3.08026 5.28577 5.2159 5.28577C5.6266 5.28577 5.99623 5.34737 6.30426 5.34737C6.8587 5.34737 7.14619 5.10095 7.14619 4.71079C7.14619 4.4849 7.04352 4.19741 7.04352 3.88938C7.04352 3.19119 7.63904 2.61621 8.35776 2.61621C9.07649 2.61621 9.65147 3.21173 9.65147 3.93045C9.65147 4.69025 9.05595 5.03935 8.60418 5.20363C8.23455 5.32684 7.94706 5.49112 7.94706 5.86075C7.94706 6.55689 9.22023 7.23454 9.22023 9.18537ZM8.80953 19.496C8.80953 17.463 7.31047 15.8202 5.27751 15.8202C3.24454 15.8202 1.74548 17.463 1.74548 19.496C1.74548 21.5084 3.24454 23.1718 5.27751 23.1718C7.31047 23.1718 8.80953 21.5064 8.80953 19.496ZM7.59797 9.1443C7.59797 7.85059 6.55068 6.78277 5.27751 6.78277C4.00433 6.78277 2.95705 7.85059 2.95705 9.1443C2.95705 10.438 4.00433 11.5058 5.27751 11.5058C6.55068 11.5058 7.59797 10.438 7.59797 9.1443Z" fill="white"/>
<path d="M16.6129 5.48885C17.27 5.48885 17.7628 5.98169 17.7628 6.59774C17.7628 7.21379 17.2905 7.70664 16.6334 7.70664C15.9558 7.70664 15.5861 7.2754 14.9085 7.2754C14.2513 7.2754 13.738 7.74771 13.738 8.54857V15.0171C13.738 15.51 13.3478 15.9001 12.855 15.9001C12.3827 15.9001 11.9925 15.51 11.9925 15.0171V6.31025C11.9925 5.81741 12.3827 5.42725 12.855 5.42725C13.738 5.42725 13.5737 6.26918 14.4567 6.26918C15.2986 6.26918 15.6067 5.48885 16.6129 5.48885Z" fill="white"/>
<path d="M18.5226 10.6638C18.5226 7.56303 20.6582 5.32471 23.5947 5.32471C26.2848 5.32471 28.4205 7.29607 28.4205 9.98616C28.4205 10.6227 28.0098 11.054 27.4143 11.054H20.7404C20.4529 11.054 20.3502 11.1567 20.3502 11.3825C20.3502 11.8959 20.7609 12.8405 21.377 13.4566C21.993 14.0726 22.8349 14.4423 24.026 14.4423C24.909 14.4423 25.6893 14.1137 26.2848 13.6825C26.4696 13.5387 26.675 13.4566 26.8803 13.4566C27.3116 13.4566 27.6607 13.8467 27.6607 14.2575C27.6607 14.5039 27.5785 14.7092 27.3732 14.894C26.5107 15.6128 25.2991 16.0029 23.9849 16.0029C20.802 16.0029 18.5226 13.703 18.5226 10.6638ZM25.792 7.70677C25.217 7.13179 24.4777 6.8443 23.5947 6.8443C22.7117 6.8443 21.8903 7.1934 21.2948 7.78891C20.8225 8.26122 20.4939 8.87727 20.4939 9.28797C20.4939 9.49332 20.6172 9.57546 20.8841 9.57546H26.2232C26.4696 9.57546 26.5929 9.49332 26.5929 9.28797C26.5929 8.79513 26.2027 8.11747 25.792 7.70677Z" fill="white"/>
<path d="M30.1865 10.6638C30.1865 7.56303 32.3222 5.32471 35.2587 5.32471C37.9488 5.32471 40.0844 7.29607 40.0844 9.98616C40.0844 10.6227 39.6737 11.054 39.0782 11.054H32.4043C32.1168 11.054 32.0141 11.1567 32.0141 11.3825C32.0141 11.8959 32.4248 12.8405 33.0409 13.4566C33.6569 14.0726 34.4989 14.4423 35.6899 14.4423C36.5729 14.4423 37.3533 14.1137 37.9488 13.6825C38.1336 13.5387 38.3389 13.4566 38.5443 13.4566C38.9755 13.4566 39.3246 13.8467 39.3246 14.2575C39.3246 14.5039 39.2425 14.7092 39.0371 14.894C38.1747 15.6128 36.9631 16.0029 35.6488 16.0029C32.4659 16.0029 30.1865 13.703 30.1865 10.6638ZM37.4559 7.70677C36.8809 7.13179 36.1417 6.8443 35.2587 6.8443C34.3757 6.8443 33.5543 7.1934 32.9588 7.78891C32.4864 8.26122 32.1579 8.87727 32.1579 9.28797C32.1579 9.49332 32.2811 9.57546 32.5481 9.57546H37.8872C38.1336 9.57546 38.2568 9.49332 38.2568 9.28797C38.2568 8.79513 37.8666 8.11747 37.4559 7.70677Z" fill="white"/>
<path d="M50.3725 15.9003C49.8796 15.9003 49.4895 15.5101 49.4895 15.0172V9.43172C49.4895 7.97373 48.3395 6.86484 46.861 6.86484C45.3619 6.86484 44.212 7.99426 44.212 9.43172V15.0172C44.212 15.5101 43.8218 15.9003 43.329 15.9003C42.8567 15.9003 42.4665 15.5101 42.4665 15.0172V6.28985C42.4665 5.81755 42.8567 5.42738 43.3084 5.42738C44.1709 5.42738 44.1298 6.20771 44.5816 6.20771C45.0334 6.20771 45.6494 5.32471 47.2512 5.32471C49.4895 5.32471 51.235 7.1934 51.235 9.43172V15.0172C51.235 15.5101 50.8448 15.9003 50.3725 15.9003Z" fill="white"/>
<path d="M62.1595 15.9001C61.6666 15.9001 61.2765 15.5099 61.2765 15.0171V9.43155C61.2765 7.97356 60.1265 6.86467 58.648 6.86467C57.1489 6.86467 55.999 7.9941 55.999 9.43155V15.0171C55.999 15.5099 55.6088 15.9001 55.1159 15.9001C54.6436 15.9001 54.2535 15.5099 54.2535 15.0171V1.17646C54.2535 0.683623 54.6436 0.293457 55.1159 0.293457C55.6088 0.293457 55.999 0.683623 55.999 1.17646V5.71471C55.999 5.96113 56.1016 6.10487 56.3686 6.10487C56.8204 6.10487 57.4364 5.32454 59.0381 5.32454C61.2765 5.32454 63.0219 7.19323 63.0219 9.43155V15.0171C63.0219 15.5099 62.6318 15.9001 62.1595 15.9001Z" fill="white"/>
<path d="M65.4226 10.6638C65.4226 7.68624 67.8047 5.32471 70.8028 5.32471C73.8009 5.32471 76.183 7.68624 76.183 10.6638C76.183 13.6414 73.8009 16.0029 70.8028 16.0029C67.8067 16.0029 65.4226 13.6414 65.4226 10.6638ZM74.4395 10.6638C74.4395 8.58978 72.8994 6.88537 70.8048 6.88537C68.7308 6.88537 67.1907 8.58978 67.1907 10.6638C67.1907 12.7379 68.7308 14.4423 70.8048 14.4423C72.8994 14.4423 74.4395 12.7379 74.4395 10.6638Z" fill="white"/>
<path d="M79.448 5.42725C79.9408 5.42725 80.331 5.81741 80.331 6.31025V11.8958C80.331 13.3538 81.4809 14.4627 82.9595 14.4627C84.4585 14.4627 85.6085 13.3332 85.6085 11.8958V6.31025C85.6085 5.81741 85.9987 5.42725 86.4915 5.42725C86.9638 5.42725 87.354 5.81741 87.354 6.31025V15.0376C87.354 15.51 86.9638 15.9001 86.512 15.9001C85.6496 15.9001 85.6906 15.1198 85.2389 15.1198C84.7871 15.1198 84.171 16.0028 82.5693 16.0028C80.331 16.0028 78.5855 14.1341 78.5855 11.8958V6.31025C78.5876 5.81741 78.9757 5.42725 79.448 5.42725Z" fill="white"/>
<path d="M90.4548 15.2431C90.0646 14.9967 89.7977 14.7503 89.7977 14.278C89.7977 13.8262 90.1468 13.4771 90.578 13.4771C91.0914 13.4771 91.3173 13.7851 91.7485 14.011C92.2824 14.3191 92.8985 14.4833 93.6583 14.4833C95.0546 14.4833 95.7528 13.8467 95.7528 13.0664C95.7528 11.9575 94.7261 11.7522 93.3297 11.3825C91.6047 10.9308 89.9414 10.4174 89.9414 8.4255C89.9414 6.65948 91.2967 5.32471 93.6993 5.32471C94.6439 5.32471 95.5269 5.57113 96.2251 6.00236C96.4716 6.14611 96.718 6.45413 96.718 6.80323C96.718 7.255 96.3483 7.64517 95.876 7.64517C95.568 7.64517 95.3216 7.43982 95.0136 7.23447C94.7055 7.02912 94.2538 6.8443 93.6377 6.8443C92.2619 6.8443 91.6664 7.43982 91.6664 8.24068C91.6664 9.28797 92.6726 9.53439 94.11 9.88349C95.7939 10.2942 97.4572 10.8281 97.4572 12.8611C97.4572 14.6271 96.143 16.0029 93.6172 16.0029C92.3851 16.0029 91.2762 15.7565 90.4548 15.2431Z" fill="white"/>
<path d="M99.1002 10.6638C99.1002 7.56303 101.236 5.32471 104.172 5.32471C106.862 5.32471 108.998 7.29607 108.998 9.98616C108.998 10.6227 108.587 11.054 107.992 11.054H101.318C101.03 11.054 100.928 11.1567 100.928 11.3825C100.928 11.8959 101.338 12.8405 101.955 13.4566C102.571 14.0726 103.413 14.4423 104.604 14.4423C105.487 14.4423 106.267 14.1137 106.862 13.6825C107.047 13.5387 107.253 13.4566 107.458 13.4566C107.889 13.4566 108.238 13.8467 108.238 14.2575C108.238 14.5039 108.156 14.7092 107.951 14.894C107.088 15.6128 105.877 16.0029 104.562 16.0029C101.382 16.0029 99.1002 13.703 99.1002 10.6638ZM106.372 7.70677C105.797 7.13179 105.057 6.8443 104.174 6.8443C103.291 6.8443 102.47 7.1934 101.874 7.78891C101.402 8.26122 101.074 8.87727 101.074 9.28797C101.074 9.49332 101.197 9.57546 101.464 9.57546H106.803C107.049 9.57546 107.172 9.49332 107.172 9.28797C107.172 8.79513 106.782 8.11747 106.372 7.70677Z" fill="white"/>
</svg>
