<svg width="108" height="27" viewBox="0 0 108 27" fill="none" xmlns="http://www.w3.org/2000/svg">
<path d="M25.4533 22.9758V22.0176H21.1412V26.15H22.2193V24.5929H24.6748V23.6346H22.2193V22.9758H25.4533Z" fill="white"/>
<path d="M35.5748 22.0176H34.4968V26.2099H35.5748V22.0176Z" fill="white"/>
<path d="M44.5582 22.9758H46.4747V26.15H47.5527V22.9758H49.5291V22.0176H44.5582V22.9758Z" fill="white"/>
<path d="M62.2259 24.4135L58.8122 21.958H58.4528V26.1503H59.5308V23.6948L62.9446 26.2701H63.3039V22.0179H62.2259V24.4135Z" fill="white"/>
<path d="M73.605 24.533H75.9407V23.5148H73.605V22.9758H76.7792V22.0176H72.527V26.15H76.9588V25.1319H73.605V24.533Z" fill="white"/>
<path d="M88.7572 23.5153L87.6192 23.4554C86.8407 23.3955 86.8407 23.2757 86.8407 23.2159C86.8407 22.9763 87.2599 22.8565 88.0385 22.8565C88.9967 22.8565 89.4758 23.0362 89.8352 23.2159L90.0148 23.3356L90.494 22.4373L90.3143 22.3175C89.7154 22.0181 89.0566 21.8384 88.0385 21.8384C86.6011 21.8384 85.7626 22.3175 85.7626 23.2159C85.7626 24.2939 87.0203 24.4137 87.4995 24.4137L88.6374 24.4735C89.4758 24.5334 89.4758 24.6532 89.4758 24.773C89.4758 25.0724 88.9967 25.1922 88.1583 25.1922C87.1401 25.1922 86.6011 24.9527 86.2418 24.7131L86.0621 24.5933L85.4632 25.4318L85.6429 25.5516C86.2418 25.9708 87.0203 26.1505 88.0984 26.1505C89.6555 26.1505 90.494 25.6115 90.494 24.7131C90.6138 23.6351 89.3561 23.5752 88.7572 23.5153Z" fill="white"/>
<path d="M102.352 23.5153L101.214 23.4554C100.436 23.3955 100.436 23.2757 100.436 23.2159C100.436 22.9763 100.855 22.8565 101.633 22.8565C102.592 22.8565 103.071 23.0362 103.43 23.2159L103.61 23.3356L104.089 22.4373L103.909 22.3175C103.31 22.0181 102.652 21.8384 101.633 21.8384C100.196 21.8384 99.3577 22.3175 99.3577 23.2159C99.3577 24.2939 100.615 24.4137 101.094 24.4137L102.232 24.4735C103.071 24.5334 103.071 24.6532 103.071 24.773C103.071 25.0724 102.592 25.1922 101.753 25.1922C100.735 25.1922 100.196 24.9527 99.8368 24.7131L99.6571 24.5933L99.0582 25.4318L99.2379 25.5516C99.8368 25.9708 100.615 26.1505 101.693 26.1505C103.251 26.1505 104.089 25.6115 104.089 24.7131C104.209 23.6351 102.951 23.5752 102.352 23.5153Z" fill="white"/>
<path d="M18.9254 9.08136H21.0814V9.97971L21.2012 9.85993L21.321 9.68026C21.7402 9.14125 22.3391 8.90169 23.0578 8.8418H23.2973V10.8182C23.1776 10.7583 23.0578 10.7583 22.9979 10.7583C21.8001 10.6385 21.2012 11.2973 21.2012 12.4951V16.9869H18.9254V9.08136Z" fill="white"/>
<path d="M25.8725 12.1358C26.2318 12.0759 26.5911 12.0759 26.9505 12.1358C27.6692 12.1957 28.1483 12.3754 28.5675 12.6748V12.1358C28.5675 11.2973 28.0285 10.8182 26.7708 10.6386C26.2917 10.5787 25.5131 10.5787 24.6747 10.6984C24.5549 10.6984 24.4351 10.7583 24.3153 10.7583V9.02152C24.7944 8.96163 25.1538 8.90174 25.6329 8.90174C29.3461 8.78196 30.7835 9.97977 30.7835 12.2556V16.927H28.5675V16.2083C28.5076 16.2682 28.3878 16.3281 28.328 16.388C27.7291 16.8072 27.0703 17.0468 26.2318 16.9869C24.3153 16.9869 23.1774 15.7891 23.2373 14.5314C23.2373 13.3935 24.1955 12.3754 25.8725 12.1358ZM26.7708 15.7292C26.9505 15.7292 27.1302 15.7292 27.3098 15.7292C27.6692 15.6693 27.9087 15.6094 28.0884 15.4298C28.6274 15.0704 28.6873 14.3517 28.2681 13.9325C28.0285 13.7528 27.7291 13.5732 27.2499 13.5133C26.0521 13.3336 25.3933 13.8726 25.3335 14.5913C25.4532 15.1902 25.8725 15.6693 26.7708 15.7292Z" fill="white"/>
<path d="M32.4006 9.08202H34.5566V9.92048C34.6165 9.86059 34.6764 9.8007 34.7363 9.74081C35.3352 9.2018 35.994 8.90235 36.7726 8.90235C38.689 8.84246 39.8869 10.16 39.8869 12.4359V16.9875H37.611V12.7353C37.611 11.5974 37.1918 10.9985 36.4132 10.7589C35.2753 10.4595 34.6165 11.1183 34.6165 12.3161V16.9875H32.3407V9.08202H32.4006Z" fill="white"/>
<path d="M41.2642 12.3158C41.4439 11.2378 42.0428 10.3395 42.8813 9.74057C44.4384 8.66255 46.4148 8.84222 47.373 9.98013V9.08178H49.5291V16.9274C49.5291 19.1433 48.0318 20.5208 45.0373 20.5807C44.5582 20.5807 44.139 20.5208 43.6599 20.4609V18.4845C44.0791 18.6043 44.4983 18.6642 44.9175 18.6642C46.5346 18.6043 47.2533 17.9455 47.2533 16.8076V16.2087C46.4148 17.1669 44.9175 17.4664 43.3604 16.8076C42.1626 16.2686 41.384 15.1906 41.2044 13.8131C41.2044 13.5735 41.1445 13.334 41.1445 13.0345C41.2044 12.795 41.2044 12.5554 41.2642 12.3158ZM43.4802 13.334C43.6599 14.6516 44.5582 15.4301 45.8159 15.1906C46.6544 15.0708 47.2533 14.412 47.373 13.334C47.4329 13.0944 47.4329 12.8549 47.373 12.6153C47.1934 11.3576 46.4747 10.6988 45.4566 10.6988C44.3785 10.6988 43.6599 11.3576 43.5401 12.6153C43.5401 12.7351 43.4802 12.8549 43.4802 12.9746C43.4802 13.1543 43.4802 13.2142 43.4802 13.334Z" fill="white"/>
<path d="M59.3511 9.08179H60.2494V7.04553L61.3873 6.56641V9.08179H63.4835L63.2439 9.92025H61.3274V14.1126V14.3521V14.8312C61.3274 15.7895 61.9263 16.2686 63.1241 16.2087C63.2439 16.2087 63.3038 16.2087 63.4236 16.1488V17.0472C63.3038 17.0472 63.2439 17.1071 63.1241 17.1071C60.8483 17.2867 60.1296 16.5082 60.1296 14.1724V9.98014H59.1115L59.3511 9.08179Z" fill="white"/>
<path d="M64.5017 5.96759L65.6396 5.72803V10.3396C65.7594 10.1599 65.9391 9.98023 66.1188 9.80055C66.538 9.38132 67.077 9.14176 67.6759 8.96209C70.0116 8.48297 71.6885 9.98022 71.6885 12.3758V16.9874H70.5506V12.7951C70.5506 10.8786 69.6523 9.86045 68.0951 9.92034C66.538 9.92034 65.5797 10.9385 65.5797 12.6154V17.0473H64.4418V5.96759H64.5017Z" fill="white"/>
<path d="M73.3054 11.3576C73.8445 10.04 74.9824 9.14165 76.4197 8.90209C78.8752 8.54275 80.9714 10.2796 81.0912 12.7351C81.0912 12.9147 81.0912 13.0944 81.0912 13.2142H74.2038C74.2038 13.2741 74.2038 13.334 74.2038 13.3938C74.2637 14.412 74.8027 15.2504 75.7609 15.7296C76.9587 16.3285 78.3961 16.0889 79.4741 15.0708C79.534 15.0109 79.5939 14.951 79.6538 14.8911L80.4923 15.49C80.2527 15.7895 79.9532 16.029 79.6538 16.2686C78.5758 17.0471 77.3181 17.2268 76.0604 16.8675C73.7247 16.2087 72.5868 14.2323 73.0659 12.0164C73.1258 11.8966 73.2456 11.657 73.3054 11.3576ZM80.0131 12.4356V12.3158V12.1362C80.0131 12.0164 79.9532 11.9565 79.9532 11.7768C79.5939 10.6389 78.5758 9.86033 77.3181 9.80044C76.0005 9.80044 74.9225 10.579 74.5032 11.8367C74.4434 12.0164 74.3835 12.2559 74.3835 12.4356H80.0131Z" fill="white"/>
<path d="M87.3198 8.84181C89.4759 9.14126 90.8533 10.7583 90.8533 12.9742C90.8533 15.1902 89.5358 16.8072 87.3198 17.1066C84.4451 17.5259 82.3489 15.6693 82.3489 12.9742C82.3489 10.2792 84.4451 8.42258 87.3198 8.84181ZM86.0621 16.0885C86.4215 16.1484 86.7209 16.1484 87.0803 16.0885C88.8171 15.7891 89.8951 14.2918 89.5358 12.3154C89.416 11.6566 89.1165 11.0577 88.6374 10.6385C88.0984 10.1594 87.3797 9.85994 86.5412 9.85994C85.7028 9.85994 84.9841 10.1594 84.4451 10.6385C83.8462 11.1775 83.4869 12.016 83.4869 12.9742C83.5467 14.6512 84.5649 15.849 86.0621 16.0885Z" fill="white"/>
<path d="M92.4105 9.08153H93.5484V10.2194C93.6083 10.1595 93.6083 10.0997 93.6682 10.0398C94.2072 9.2612 94.9258 8.90186 95.8242 8.90186C95.944 8.90186 96.0638 8.90186 96.1236 8.90186V9.97988C96.0039 9.97988 95.8841 9.91999 95.7643 9.91999C95.0456 9.8601 94.4467 10.1595 94.0275 10.5788C93.6682 10.998 93.5484 11.4172 93.5484 12.1359V16.987H92.4105V9.08153Z" fill="white"/>
<path d="M97.0819 9.08154H98.2198V13.3936C98.2198 15.0706 98.7588 15.8491 100.076 16.0887C100.436 16.1486 100.795 16.1486 101.154 16.0887C102.472 15.8491 103.071 15.0706 103.071 13.6332V9.08154H104.209V16.6876C104.209 18.8436 102.592 20.281 99.3577 20.1013C99.1781 20.1013 98.9984 20.0414 98.8187 20.0414V19.0832C98.9984 19.1431 99.1781 19.1431 99.3577 19.1431C101.873 19.2629 103.071 18.2447 103.071 16.5079V15.7892C103.011 15.909 102.951 15.9689 102.891 16.0288C102.232 16.8074 101.394 17.1667 100.316 17.1667C98.3995 17.1667 97.2017 16.0288 97.0819 14.292C97.0819 14.0524 97.0819 14.0524 97.0819 13.6332V9.08154Z" fill="white"/>
<path d="M106.485 6.14697C107.323 6.14697 107.922 6.80576 107.922 7.58434C107.922 8.4228 107.263 9.0217 106.485 9.0217C105.646 9.0217 104.987 8.4228 104.987 7.58434C104.987 6.74587 105.646 6.14697 106.485 6.14697ZM106.485 6.44642C105.886 6.44642 105.407 6.98543 105.407 7.58434C105.407 8.24313 105.886 8.72225 106.545 8.72225C107.143 8.72225 107.623 8.24313 107.623 7.58434C107.563 6.92554 107.084 6.44642 106.485 6.44642ZM106.245 8.30302H105.886V6.86565C106.006 6.86565 106.185 6.80576 106.425 6.80576C106.724 6.80576 106.844 6.86565 106.904 6.92554C106.964 6.98543 107.024 7.10521 107.024 7.22499C107.024 7.40467 106.904 7.52445 106.724 7.58434C106.844 7.64423 106.964 7.76401 106.964 7.94368C107.024 8.18324 107.024 8.24313 107.084 8.30302H106.724C106.664 8.24313 106.664 8.12335 106.604 7.94368C106.604 7.76401 106.485 7.70412 106.305 7.70412H106.125V8.30302H106.245ZM106.245 7.52445H106.425C106.604 7.52445 106.784 7.46456 106.784 7.34477C106.784 7.22499 106.664 7.10521 106.485 7.10521C106.425 7.10521 106.365 7.10521 106.305 7.10521V7.52445H106.245Z" fill="white"/>
<path d="M58.9318 13.6332C58.9318 13.3936 58.9318 13.2139 58.9318 12.9744C58.8719 10.6387 57.2549 9.02164 55.0389 8.90186C54.4999 8.90186 53.9609 8.96175 53.4219 9.14142C52.0444 9.62054 51.0862 10.7584 50.7867 12.1359C50.3076 14.2321 51.4455 16.448 53.8411 17.1068C55.4582 17.5859 56.9554 17.1068 58.1532 15.909C58.2131 15.8491 58.273 15.7892 58.3329 15.6694L56.5961 14.5315C56.5362 14.5914 56.5362 14.5914 56.4763 14.6513C56.1769 15.0106 55.8774 15.1903 55.5181 15.3101C54.9192 15.4898 54.3802 15.4299 53.9609 15.1903C53.362 14.831 53.0027 14.2321 53.0626 13.753H58.9318V13.6332ZM55.0988 10.459C56.0571 10.459 56.8356 11.1178 56.8955 12.076V12.1958H53.0626C53.1225 12.076 53.1225 11.9563 53.1824 11.8365C53.4818 10.998 54.2604 10.459 55.0988 10.459Z" fill="white"/>
<path d="M18.506 17.8855C17.0088 18.1251 16.2901 16.8674 16.7692 15.7894C17.1885 14.891 17.3681 13.9328 17.3681 12.9146C17.3681 11.8965 17.1885 10.9383 16.7692 10.0399C16.4099 9.14156 17.0088 7.7042 18.506 7.94376C19.2846 8.06354 19.9434 7.28497 19.9434 6.26683C19.9434 5.2487 19.3445 4.23057 18.506 4.0509C17.6676 3.81134 16.9489 4.58991 16.9489 5.72782C16.9489 7.7042 15.8709 8.48277 14.9725 7.76409C14.194 7.1053 13.2956 6.68606 12.2775 6.50639C11.1995 6.32672 10.1813 6.50639 9.22308 6.92562C9.1033 6.98552 9.04341 6.98552 8.92363 6.98552C7.9055 7.1053 6.28846 5.90749 6.28846 3.51189C6.28846 2.07453 5.03077 0.517383 3.41374 0.0981523C1.61703 -0.321078 0.0598901 0.637163 0.0598901 2.31409C0.0598901 3.99101 1.55714 5.54815 3.35385 5.78771C5.80934 6.14705 7.00714 7.58442 6.76758 8.78222C6.76758 8.902 6.70769 9.02178 6.58791 9.14156C5.92912 10.1597 5.50989 11.4773 5.50989 12.9745C5.50989 14.352 5.86923 15.6097 6.52802 16.6278C6.58791 16.7476 6.6478 16.8674 6.6478 16.9872C6.82747 18.0652 5.80934 19.7421 3.29396 20.1014C1.55714 20.341 0 21.8982 0 23.5751C0 25.252 1.49725 26.2102 3.29396 25.7311C4.91099 25.3119 6.16868 23.8146 6.16868 22.3174C6.16868 19.9817 7.60604 18.6042 8.80385 18.8438C8.86374 18.8438 8.98352 18.9036 9.04341 18.9036C10.0016 19.3828 11.0797 19.5624 12.2176 19.3828C13.2357 19.2031 14.1341 18.7839 14.9126 18.185C15.6313 17.646 16.889 18.2449 16.889 20.1613C16.889 21.2993 17.6077 22.0179 18.4462 21.7784C19.2247 21.5987 19.8835 20.5806 19.8835 19.5624C19.8835 18.5443 19.2846 17.7657 18.506 17.8855ZM12.2176 16.9872C10.1214 17.2267 8.20495 15.43 8.20495 12.9745C8.20495 10.519 10.1214 8.72233 12.2176 8.96189C14.1341 9.20145 15.5115 10.9982 15.5115 12.9745C15.5115 14.9509 14.1341 16.7476 12.2176 16.9872Z" fill="white"/>
</svg>
